{"title":"Recognize 2012 VODRip x264 AC3-MATA","uid":7799710,"size":828044066,"categoryP":"video","categoryS":"movies","magnet":"?xt=urn:btih:4478fe05e65e6efe6b008cec6f03c99c34ff180a&amp;dn=Recognize+2012+VODRip+x264+AC3-MATA&amp;tr=udp%3A%2F%2Ftracker.openbittorrent.com%3A80&amp;tr=udp%3A%2F%2Fopen.demonii.com%3A1337&amp;tr=udp%3A%2F%2Ftracker.coppersurfer.tk%3A6969&amp;tr=udp%3A%2F%2Fexodus.desync.com%3A6969","seeders":1,"leechers":0,"uploader":"Acesn8s","files":-1,"time":1352246853,"description":"\nRecognize 2012 VODRip X264 AC3-MATA\n &lt;a href=&quot;\nhttp://www.imdb.com/title/tt2175098/&quot; rel=&quot;nofollow&quot; target=&quot;_NEW&quot;&gt;\nhttp://www.imdb.com/title/tt2175098/&lt;/a&gt;\n\nVideo\nID                                       : 1\nFormat                                   : AVC\nFormat/Info                              : Advanced Video Codec\nFormat profile                           : &lt;a class=&quot;__cf_email__&quot; href=&quot;/cdn-cgi/l/email-protection&quot; data-cfemail=&quot;dc91bdb5b29c90eff2ec&quot;&gt;[email&amp;#160;protected]&lt;/a&gt;&lt;script cf-hash='f9e31' type=&quot;text/javascript&quot;&gt;\n/* &lt;![CDATA[ */!function(){try{var t=&quot;currentScript&quot;in document?document.currentScript:function(){for(var t=document.getElementsByTagName(&quot;script&quot;),e=t.length;e--;)if(t[e].getAttribute(&quot;cf-hash&quot;))return t[e]}();if(t&amp;&amp;t.previousSibling){var e,r,n,i,c=t.previousSibling,a=c.getAttribute(&quot;data-cfemail&quot;);if(a){for(e=&quot;&quot;,r=parseInt(a.substr(0,2),16),n=2;a.length-n;n+=2)i=parseInt(a.substr(n,2),16)^r,e+=String.fromCharCode(i);e=document.createTextNode(e),c.parentNode.replaceChild(e,c)}}}catch(u){}}();/* ]]&gt; */&lt;/script&gt;\nFormat settings, CABAC                   : Yes\nFormat settings, ReFrames                : 4 frames\nCodec ID                                 : V_MPEG4/ISO/AVC\nDuration                                 : 1h 32mn\nBit rate                                 : 1 000 Kbps\nWidth                                    : 720 pixels\nHeight                                   : 400 pixels\nDisplay aspect ratio                     : 16:9\nFrame rate mode                          : Variable\nFrame rate                               : 23.976 fps\nColor space                              : YUV\nChroma subsampling                       : 4:2:0\nBit depth                                : 8 bits\nScan type                                : Progressive\nBits/(Pixel*Frame)                       : 0.145\nStream size                              : 647 MiB (82%)\nWriting library                          : x264 core 125\n\nAudio\nID                                       : 2\nFormat                                   : AC-3\nFormat/Info                              : Audio Coding 3\nFormat profile                           : Dolby Digital\nMode extension                           : CM (complete main)\nCodec ID                                 : A_AC3\nDuration                                 : 1h 32mn\nBit rate mode                            : Constant\nBit rate                                 : 192 Kbps\nChannel(s)                               : 2 channels\nChannel positions                        : Front: L R\nSampling rate                            : 48.0 KHz\nBit depth                                : 16 bits\nCompression mode                         : Lossy\nStream size                              : 127 MiB (16%)\n\nCast: One Way Boobe, Big sam of the Eastside Boys, City Boys\n\nPlot: Derrill Davis aka Dee Dee (played by T. Miles) lives the life as a professional used car salesman by day and one of Atlanta's most deadly and feared undercover street gangsters by night... \n\n\nScreens &lt;a href=&quot;\nhttp://img23.imageshack.us/img23/455/60534739.png&quot; rel=&quot;nofollow&quot; target=&quot;_NEW&quot;&gt;\nhttp://img23.imageshack.us/img23/455/60534739.png&lt;/a&gt; &lt;a href=&quot;\nhttp://img42.imageshack.us/img42/6708/23391190.png&quot; rel=&quot;nofollow&quot; target=&quot;_NEW&quot;&gt;\nhttp://img42.imageshack.us/img42/6708/23391190.png&lt;/a&gt; &lt;a href=&quot;\nhttp://img855.imageshack.us/img855/3499/80282304.png&quot; rel=&quot;nofollow&quot; target=&quot;_NEW&quot;&gt;\nhttp://img855.imageshack.us/img855/3499/80282304.png&lt;/a&gt; &lt;a href=&quot;\nhttp://img341.imageshack.us/img341/5998/16484050.png&quot; rel=&quot;nofollow&quot; target=&quot;_NEW&quot;&gt;\nhttp://img341.imageshack.us/img341/5998/16484050.png&lt;/a&gt;\n","torrent":{"xt":"urn:btih:4478fe05e65e6efe6b008cec6f03c99c34ff180a","amp;dn":"Recognize+2012+VODRip+x264+AC3-MATA","amp;tr":["udp%3A%2F%2Ftracker.openbittorrent.com%3A80","udp%3A%2F%2Fopen.demonii.com%3A1337","udp%3A%2F%2Ftracker.coppersurfer.tk%3A6969","udp%3A%2F%2Fexodus.desync.com%3A6969"],"infoHash":"4478fe05e65e6efe6b008cec6f03c99c34ff180a","infoHashBuffer":{"type":"Buffer","data":[68,120,254,5,230,94,110,254,107,0,140,236,111,3,201,156,52,255,24,10]},"announce":[],"urlList":[]}}